<mxfile host="app.diagrams.net" agent="Mozilla/5.0 (Windows NT 10.0; Win64; x64) AppleWebKit/537.36 (KHTML, like Gecko) Chrome/129.0.0.0 Safari/537.36 Edg/129.0.0.0" version="24.7.17" pages="2">
  <diagram name="第 1 页" id="W32M6vw8p9NuoV8S9_K3">
    <mxGraphModel dx="1508" dy="865" grid="1" gridSize="10" guides="1" tooltips="1" connect="1" arrows="1" fold="1" page="0" pageScale="1" pageWidth="827" pageHeight="1169" math="0" shadow="0">
      <root>
        <mxCell id="0" />
        <mxCell id="1" parent="0" />
        <mxCell id="hAYa3xcsTzl9jss9z9t--1" value="" style="whiteSpace=wrap;html=1;aspect=fixed;rounded=1;glass=1;sketch=1;curveFitting=1;jiggle=2;" vertex="1" parent="1">
          <mxGeometry x="35" y="170" width="260" height="260" as="geometry" />
        </mxCell>
        <mxCell id="hAYa3xcsTzl9jss9z9t--2" value="代做毕设" style="text;html=1;align=center;verticalAlign=middle;whiteSpace=wrap;rounded=1;fillColor=#ffe6cc;strokeColor=#d79b00;fontSize=20;gradientColor=#D5E8D4;glass=1;sketch=1;curveFitting=1;jiggle=2;shadow=0;fontFamily=Comic Sans MS;" vertex="1" parent="1">
          <mxGeometry x="115" y="200" width="100" height="30" as="geometry" />
        </mxCell>
        <mxCell id="hAYa3xcsTzl9jss9z9t--3" value="技术范围：Java、Go、React" style="text;html=1;align=center;verticalAlign=middle;whiteSpace=wrap;rounded=0;fillColor=#f8cecc;strokeColor=#b85450;sketch=1;curveFitting=1;jiggle=2;fontFamily=Comic Sans MS;" vertex="1" parent="1">
          <mxGeometry x="72.5" y="280" width="185" height="30" as="geometry" />
        </mxCell>
        <mxCell id="hAYa3xcsTzl9jss9z9t--4" value="内容：Web端" style="text;html=1;align=center;verticalAlign=middle;whiteSpace=wrap;rounded=0;fillColor=#f5f5f5;fontColor=#333333;strokeColor=#666666;sketch=1;curveFitting=1;jiggle=2;fontFamily=Comic Sans MS;" vertex="1" parent="1">
          <mxGeometry x="97.5" y="350" width="135" height="30" as="geometry" />
        </mxCell>
      </root>
    </mxGraphModel>
  </diagram>
  <diagram id="O5Ul51pKqS8mQSzGMGNK" name="第 2 页">
    <mxGraphModel dx="1508" dy="829" grid="1" gridSize="10" guides="1" tooltips="1" connect="1" arrows="1" fold="1" page="1" pageScale="1" pageWidth="827" pageHeight="1169" math="0" shadow="0">
      <root>
        <mxCell id="0" />
        <mxCell id="1" parent="0" />
      </root>
    </mxGraphModel>
  </diagram>
</mxfile>
